<?xml version="1.0" encoding="UTF-8"?>
<svg width="22px" height="29px" viewBox="0 0 22 29" version="1.1" xmlns="http://www.w3.org/2000/svg" xmlns:xlink="http://www.w3.org/1999/xlink">
    <!-- Generator: Sketch 46.2 (44496) - http://www.bohemiancoding.com/sketch -->
    <title>Checked nearby nav</title>
    <desc>Created with Sketch.</desc>
    <defs></defs>
    <g id="Icons-for-jonny" stroke="none" stroke-width="1" fill="none" fill-rule="evenodd">
        <g id="Icon-/-Discover" transform="translate(-34.000000, -14.000000)" fill="#F44336">
            <path d="M50.3303435,24.5764132 C50.4097815,21.83866 48.1262857,19.6148492 45.1547632,19.5362284 C42.2523706,19.4594958 39.7551038,21.5768175 39.6734569,24.1836872 C39.5841198,27.0366904 41.8539532,29.2474356 44.9540819,29.3268115 C47.8028886,29.3997679 50.2532779,27.2346394 50.3303435,24.5764132 Z M35.2440677,30.0462042 C34.2820269,27.9553954 33.7869936,25.7587084 34.0874783,23.4554392 C34.6767476,18.9378806 37.9669324,15.4008616 42.5226359,14.346128 C48.7250643,12.9102152 54.9859934,17.0431621 55.8849079,23.1738013 C56.2637562,25.7572122 55.6785684,28.1869545 54.5518189,30.5099384 C52.8293605,34.0610393 46.1398637,41.5340202 46.1398637,41.5340202 C45.518037,42.242485 44.4959397,42.2594316 43.8553736,41.5567039 C43.8553736,41.5567039 37.4304498,34.7984023 35.2440677,30.0462042 Z" id="Checked-nearby-nav"></path>
        </g>
    </g>
</svg>