<?xml version="1.0" encoding="UTF-8"?>
<svg width="27px" height="27px" viewBox="0 0 27 27" version="1.1" xmlns="http://www.w3.org/2000/svg" xmlns:xlink="http://www.w3.org/1999/xlink">
    <!-- Generator: Sketch 46.2 (44496) - http://www.bohemiancoding.com/sketch -->
    <title>Checked profile nav</title>
    <desc>Created with Sketch.</desc>
    <defs></defs>
    <g id="Icons-for-jonny" stroke="none" stroke-width="1" fill="none" fill-rule="evenodd">
        <g id="Icon-/-Tab-/-Profile" transform="translate(-32.000000, -15.000000)" fill="#F44336">
            <path d="M45.5,42 C38.0441559,42 32,35.9558441 32,28.5 C32,21.0441559 38.0441559,15 45.5,15 C52.9558441,15 59,21.0441559 59,28.5 C59,35.9558441 52.9558441,42 45.5,42 Z M45.4643894,37.2352941 C52.7814734,37.2776581 53.908197,30.3047709 53.908197,30.3047709 C54.0636855,29.746094 53.7001041,29.2941176 53.1277697,29.2941176 L37.8010091,29.2941176 C37.2300969,29.2941176 36.8770705,29.7350611 37.0156793,30.2789923 C37.0156793,30.2789923 38.1473054,37.1929301 45.4643894,37.2352941 Z M40.7352941,26.1176471 C42.0510313,26.1176471 43.1176471,25.0510313 43.1176471,23.7352941 C43.1176471,22.4195569 42.0510313,21.3529412 40.7352941,21.3529412 C39.4195569,21.3529412 38.3529412,22.4195569 38.3529412,23.7352941 C38.3529412,25.0510313 39.4195569,26.1176471 40.7352941,26.1176471 Z M50.2647059,26.1176471 C51.5804431,26.1176471 52.6470588,25.0510313 52.6470588,23.7352941 C52.6470588,22.4195569 51.5804431,21.3529412 50.2647059,21.3529412 C48.9489687,21.3529412 47.8823529,22.4195569 47.8823529,23.7352941 C47.8823529,25.0510313 48.9489687,26.1176471 50.2647059,26.1176471 Z" id="Checked-profile-nav"></path>
        </g>
    </g>
</svg>